<svg width="1142" height="244" viewBox="0 0 1142 244" fill="none" xmlns="http://www.w3.org/2000/svg">
<path d="M287.123 99.6473H293.706V52.6017H333.384V46.804H293.706V5.85805H336.162V0H287.123V99.6473Z" fill="white"/>
<path d="M354.876 99.6473H362.002L375.107 65.6464H418.892L431.936 99.6473H439.063L400.049 0H393.889L354.876 99.6473ZM377.342 59.7884L396.969 8.57571L416.657 59.7884H377.342Z" fill="white"/>
<path d="M486.748 99.6473H493.331V6.16001H525.097V0H455.042V6.16001H486.748V99.6473Z" fill="white"/>
<path d="M555.893 99.6473H562.475V52.6017H621.116V99.6473H627.759V0H621.116V46.804H562.475V0H555.893V99.6473Z" fill="white"/>
<path d="M667.5 99.6473H716.418V93.7892H674.083V52.6017H714.969V46.804H674.083V5.85805H716.418V0H667.5V99.6473Z" fill="white"/>
<path d="M749.974 99.6473H756.556V56.5876H769.541L802.092 99.6473H810.487L777.21 56.1044C785.746 55.5005 792.53 52.6419 797.563 47.5287C802.636 42.4155 805.172 35.7925 805.172 27.6597C805.172 19.084 802.354 12.3402 796.717 7.42825C791.121 2.47608 783.491 0 773.828 0H749.974V99.6473ZM756.556 50.7295V5.43531H772.621C780.673 5.43531 787.014 7.42825 791.644 11.4141C796.274 15.4 798.589 20.8555 798.589 27.7805C798.589 34.786 796.234 40.3622 791.523 44.5091C786.853 48.6561 780.552 50.7295 772.621 50.7295H756.556Z" fill="white"/>
<path d="M875.719 99.6473H924.033V96.6277H879.101V0H875.719V99.6473Z" fill="white"/>
<path d="M956.894 99.6473H960.276V0H956.894V99.6473Z" fill="white"/>
<path d="M1001.74 99.6473H1005.12V52.6621L1058.63 99.6473H1063.64L1007.54 50.1256L1059.11 0H1054.4L1005.12 47.9515V0H1001.74V99.6473Z" fill="white"/>
<path d="M1094.12 99.6473H1141.47V96.6277H1097.5V51.2127H1140.02V48.193H1097.5V3.01962H1141.47V0H1094.12V99.6473Z" fill="white"/>
<path d="M312.73 244H316.112V147.734H349.448V144.352H279.393V147.734H312.73V244Z" fill="white"/>
<path d="M382.413 244H385.795V195.565H449.811V244H453.193V144.352H449.811V192.545H385.795V144.352H382.413V244Z" fill="white"/>
<path d="M494.61 244H541.958V240.98H497.992V195.565H540.509V192.545H497.992V147.372H541.958V144.352H494.61V244Z" fill="white"/>
<path d="M609.341 244H625.164V201.001H660.614V187.111H625.164V158.243H663.271V144.353H609.341V244Z" fill="white"/>
<path d="M675.814 244H692.784L702.628 218.032H743.091L752.875 244H769.905L730.167 144.353H715.492L675.814 244ZM708.003 204.141L722.799 165.611L737.716 204.141H708.003Z" fill="white"/>
<path d="M804.957 244H820.72V158.424H847.896V144.353H777.841V158.424H804.957V244Z" fill="white"/>
<path d="M872.963 244H888.786V201.001H932.208V244H947.97V144.353H932.208V187.111H888.786V144.353H872.963V244Z" fill="white"/>
<path d="M983.759 244H1037.33V230.11H999.582V201.001H1035.88V187.111H999.582V158.243H1037.33V144.353H983.759V244Z" fill="white"/>
<path d="M1068.96 244H1084.78V204.866H1091.85L1121.68 244H1141.73L1108.94 203.115C1116.39 201.585 1122.23 198.223 1126.45 193.029C1130.72 187.835 1132.85 181.414 1132.85 173.764C1132.85 164.504 1129.9 157.297 1123.98 152.144C1118.06 146.95 1110.07 144.353 1100 144.353H1068.96V244ZM1084.78 191.58V157.035H1095.35C1101.99 157.035 1107.15 158.545 1110.81 161.565C1114.52 164.584 1116.37 168.792 1116.37 174.187C1116.37 179.622 1114.52 183.89 1110.81 186.99C1107.11 190.05 1101.95 191.58 1095.35 191.58H1084.78Z" fill="white"/>
<path fill-rule="evenodd" clip-rule="evenodd" d="M79.1233 31.4155H195.797V63.6013H111.309V212.46H79.1233V31.4155Z" fill="white"/>
<path fill-rule="evenodd" clip-rule="evenodd" d="M59.0072 63.6014H0V31.4156H59.0072V63.6014ZM179.704 130.655H127.402V98.4693H179.704V130.655Z" fill="white"/>
</svg>
